<mxfile host="65bd71144e">
    <diagram id="VRIWvG7t2p2S4sPS8mSp" name="Page-1">
        <mxGraphModel dx="785" dy="-1956" grid="1" gridSize="10" guides="1" tooltips="1" connect="1" arrows="1" fold="1" page="1" pageScale="1" pageWidth="1169" pageHeight="827" math="0" shadow="0">
            <root>
                <mxCell id="0"/>
                <mxCell id="1" parent="0"/>
                <mxCell id="257" value="Начислеение выплат исполнителям" style="swimlane;html=1;childLayout=stackLayout;resizeParent=1;resizeParentMax=0;horizontal=0;startSize=20;horizontalStack=0;whiteSpace=wrap;strokeColor=default;" parent="1" vertex="1">
                    <mxGeometry x="80" y="3000" width="1480" height="280" as="geometry"/>
                </mxCell>
                <mxCell id="258" value="Исполнитель" style="swimlane;html=1;startSize=20;horizontal=0;strokeColor=default;" parent="257" vertex="1">
                    <mxGeometry x="20" width="1460" height="280" as="geometry"/>
                </mxCell>
                <mxCell id="259" value="" style="edgeStyle=none;html=1;" parent="258" source="260" target="263" edge="1">
                    <mxGeometry relative="1" as="geometry"/>
                </mxCell>
                <mxCell id="260" value="" style="points=[[0.145,0.145,0],[0.5,0,0],[0.855,0.145,0],[1,0.5,0],[0.855,0.855,0],[0.5,1,0],[0.145,0.855,0],[0,0.5,0]];shape=mxgraph.bpmn.event;html=1;verticalLabelPosition=bottom;labelBackgroundColor=#ffffff;verticalAlign=top;align=center;perimeter=ellipsePerimeter;outlineConnect=0;aspect=fixed;outline=standard;symbol=timer;" parent="258" vertex="1">
                    <mxGeometry x="50" y="55" width="50" height="50" as="geometry"/>
                </mxCell>
                <mxCell id="261" value="Последний день&lt;br&gt;месяца" style="text;html=1;align=center;verticalAlign=middle;resizable=0;points=[];autosize=1;strokeColor=none;fillColor=none;" parent="258" vertex="1">
                    <mxGeometry x="15" y="109" width="120" height="40" as="geometry"/>
                </mxCell>
                <mxCell id="262" value="" style="edgeStyle=none;html=1;" parent="258" target="264" edge="1">
                    <mxGeometry relative="1" as="geometry">
                        <mxPoint x="420" y="80" as="sourcePoint"/>
                    </mxGeometry>
                </mxCell>
                <mxCell id="275" value="" style="edgeStyle=none;html=1;" parent="258" source="263" target="274" edge="1">
                    <mxGeometry relative="1" as="geometry"/>
                </mxCell>
                <mxCell id="263" value="Расчёт выплат&lt;div&gt;за месяц&lt;/div&gt;" style="points=[[0.25,0,0],[0.5,0,0],[0.75,0,0],[1,0.25,0],[1,0.5,0],[1,0.75,0],[0.75,1,0],[0.5,1,0],[0.25,1,0],[0,0.75,0],[0,0.5,0],[0,0.25,0]];shape=mxgraph.bpmn.task;whiteSpace=wrap;rectStyle=rounded;size=10;html=1;taskMarker=abstract;" parent="258" vertex="1">
                    <mxGeometry x="140" y="40" width="120" height="80" as="geometry"/>
                </mxCell>
                <mxCell id="264" value="" style="points=[[0.145,0.145,0],[0.5,0,0],[0.855,0.145,0],[1,0.5,0],[0.855,0.855,0],[0.5,1,0],[0.145,0.855,0],[0,0.5,0]];shape=mxgraph.bpmn.event;html=1;verticalLabelPosition=bottom;labelBackgroundColor=#ffffff;verticalAlign=top;align=center;perimeter=ellipsePerimeter;outlineConnect=0;aspect=fixed;outline=throwing;symbol=message;" parent="258" vertex="1">
                    <mxGeometry x="460" y="55" width="50" height="50" as="geometry"/>
                </mxCell>
                <mxCell id="265" value="Отправка информации&lt;br&gt;о транзакции" style="text;html=1;align=center;verticalAlign=middle;resizable=0;points=[];autosize=1;strokeColor=none;fillColor=none;" parent="258" vertex="1">
                    <mxGeometry x="410" y="13" width="150" height="40" as="geometry"/>
                </mxCell>
                <mxCell id="268" value="" style="points=[[0.145,0.145,0],[0.5,0,0],[0.855,0.145,0],[1,0.5,0],[0.855,0.855,0],[0.5,1,0],[0.145,0.855,0],[0,0.5,0]];shape=mxgraph.bpmn.event;html=1;verticalLabelPosition=bottom;labelBackgroundColor=#ffffff;verticalAlign=top;align=center;perimeter=ellipsePerimeter;outlineConnect=0;aspect=fixed;outline=catching;symbol=message;strokeColor=default;" parent="258" vertex="1">
                    <mxGeometry x="619" y="55" width="50" height="50" as="geometry"/>
                </mxCell>
                <mxCell id="270" value="" style="points=[[0.145,0.145,0],[0.5,0,0],[0.855,0.145,0],[1,0.5,0],[0.855,0.855,0],[0.5,1,0],[0.145,0.855,0],[0,0.5,0]];shape=mxgraph.bpmn.event;html=1;verticalLabelPosition=bottom;labelBackgroundColor=#ffffff;verticalAlign=top;align=center;perimeter=ellipsePerimeter;outlineConnect=0;aspect=fixed;outline=end;symbol=terminate2;fillColor=none;" parent="258" vertex="1">
                    <mxGeometry x="1249" y="30" width="50" height="50" as="geometry"/>
                </mxCell>
                <mxCell id="274" value="Выставление инвойса" style="points=[[0.25,0,0],[0.5,0,0],[0.75,0,0],[1,0.25,0],[1,0.5,0],[1,0.75,0],[0.75,1,0],[0.5,1,0],[0.25,1,0],[0,0.75,0],[0,0.5,0],[0,0.25,0]];shape=mxgraph.bpmn.task;whiteSpace=wrap;rectStyle=rounded;size=10;html=1;taskMarker=abstract;" parent="258" vertex="1">
                    <mxGeometry x="300" y="40" width="120" height="80" as="geometry"/>
                </mxCell>
                <mxCell id="IVOCab5pVsxxlHQSK73W-304" value="Проверка успешности оплаты" style="points=[[0.25,0,0],[0.5,0,0],[0.75,0,0],[1,0.25,0],[1,0.5,0],[1,0.75,0],[0.75,1,0],[0.5,1,0],[0.25,1,0],[0,0.75,0],[0,0.5,0],[0,0.25,0]];shape=mxgraph.bpmn.task;whiteSpace=wrap;rectStyle=rounded;size=10;html=1;container=1;expand=0;collapsible=0;taskMarker=abstract;" parent="258" vertex="1">
                    <mxGeometry x="739" y="40" width="120" height="80" as="geometry"/>
                </mxCell>
                <mxCell id="269" value="Получение информации&lt;br&gt;о транзакции" style="text;html=1;align=center;verticalAlign=middle;resizable=0;points=[];autosize=1;strokeColor=none;fillColor=none;" parent="258" vertex="1">
                    <mxGeometry x="574" y="15" width="160" height="40" as="geometry"/>
                </mxCell>
                <mxCell id="IVOCab5pVsxxlHQSK73W-305" style="edgeStyle=orthogonalEdgeStyle;rounded=0;orthogonalLoop=1;jettySize=auto;html=1;entryX=0;entryY=0.5;entryDx=0;entryDy=0;entryPerimeter=0;" parent="258" source="268" target="IVOCab5pVsxxlHQSK73W-304" edge="1">
                    <mxGeometry relative="1" as="geometry"/>
                </mxCell>
                <mxCell id="IVOCab5pVsxxlHQSK73W-306" value="" style="edgeStyle=elbowEdgeStyle;fontSize=12;html=1;endArrow=blockThin;endFill=1;startArrow=diamondThin;startFill=0;endSize=6;startSize=10;rounded=0;exitX=1;exitY=0.25;exitDx=0;exitDy=0;exitPerimeter=0;entryX=0;entryY=0.5;entryDx=0;entryDy=0;entryPerimeter=0;" parent="258" source="IVOCab5pVsxxlHQSK73W-304" target="IVOCab5pVsxxlHQSK73W-312" edge="1">
                    <mxGeometry width="160" relative="1" as="geometry">
                        <mxPoint x="869" y="70" as="sourcePoint"/>
                        <mxPoint x="1129" y="60" as="targetPoint"/>
                        <Array as="points">
                            <mxPoint x="1019" y="60"/>
                        </Array>
                    </mxGeometry>
                </mxCell>
                <mxCell id="IVOCab5pVsxxlHQSK73W-307" value="" style="edgeStyle=elbowEdgeStyle;fontSize=12;html=1;endArrow=blockThin;endFill=1;startArrow=diamondThin;startFill=0;endSize=6;startSize=10;rounded=0;exitX=1;exitY=0.75;exitDx=0;exitDy=0;exitPerimeter=0;" parent="258" source="IVOCab5pVsxxlHQSK73W-304" edge="1">
                    <mxGeometry width="160" relative="1" as="geometry">
                        <mxPoint x="869" y="99.80000000000018" as="sourcePoint"/>
                        <mxPoint x="999" y="100" as="targetPoint"/>
                    </mxGeometry>
                </mxCell>
                <mxCell id="IVOCab5pVsxxlHQSK73W-309" value="Оплата не прошла" style="text;html=1;align=center;verticalAlign=middle;resizable=0;points=[];autosize=1;strokeColor=none;fillColor=none;" parent="258" vertex="1">
                    <mxGeometry x="859" y="79" width="130" height="30" as="geometry"/>
                </mxCell>
                <mxCell id="IVOCab5pVsxxlHQSK73W-310" value="" style="points=[[0.145,0.145,0],[0.5,0,0],[0.855,0.145,0],[1,0.5,0],[0.855,0.855,0],[0.5,1,0],[0.145,0.855,0],[0,0.5,0]];shape=mxgraph.bpmn.event;html=1;verticalLabelPosition=bottom;labelBackgroundColor=#ffffff;verticalAlign=top;align=center;perimeter=ellipsePerimeter;outlineConnect=0;aspect=fixed;outline=end;symbol=error;" parent="258" vertex="1">
                    <mxGeometry x="999" y="75" width="50" height="50" as="geometry"/>
                </mxCell>
                <mxCell id="IVOCab5pVsxxlHQSK73W-311" value="Ошибка при зачислении&lt;div&gt;средств исполнителю&lt;/div&gt;" style="text;html=1;align=center;verticalAlign=middle;resizable=0;points=[];autosize=1;strokeColor=none;fillColor=none;" parent="258" vertex="1">
                    <mxGeometry x="944" y="125" width="160" height="40" as="geometry"/>
                </mxCell>
                <mxCell id="IVOCab5pVsxxlHQSK73W-308" value="Оплата прошла успешно" style="text;html=1;align=center;verticalAlign=middle;resizable=0;points=[];autosize=1;strokeColor=none;fillColor=none;" parent="258" vertex="1">
                    <mxGeometry x="859" y="40" width="160" height="30" as="geometry"/>
                </mxCell>
                <mxCell id="IVOCab5pVsxxlHQSK73W-312" value="Уведомление&lt;div&gt;о зачислении средств&lt;/div&gt;" style="points=[[0.25,0,0],[0.5,0,0],[0.75,0,0],[1,0.25,0],[1,0.5,0],[1,0.75,0],[0.75,1,0],[0.5,1,0],[0.25,1,0],[0,0.75,0],[0,0.5,0],[0,0.25,0]];shape=mxgraph.bpmn.task;whiteSpace=wrap;rectStyle=rounded;size=10;html=1;container=1;expand=0;collapsible=0;taskMarker=send;" parent="258" vertex="1">
                    <mxGeometry x="1089" y="15" width="120" height="80" as="geometry"/>
                </mxCell>
                <mxCell id="IVOCab5pVsxxlHQSK73W-313" style="edgeStyle=orthogonalEdgeStyle;rounded=0;orthogonalLoop=1;jettySize=auto;html=1;entryX=0;entryY=0.5;entryDx=0;entryDy=0;entryPerimeter=0;" parent="258" source="IVOCab5pVsxxlHQSK73W-312" target="270" edge="1">
                    <mxGeometry relative="1" as="geometry"/>
                </mxCell>
                <mxCell id="271" value="Проведено начисление средств" style="text;html=1;align=center;verticalAlign=middle;resizable=0;points=[];autosize=1;strokeColor=none;fillColor=none;" parent="258" vertex="1">
                    <mxGeometry x="1174" y="95" width="200" height="30" as="geometry"/>
                </mxCell>
                <mxCell id="272" value="Платёжный сервис" style="swimlane;html=1;childLayout=stackLayout;resizeParent=1;resizeParentMax=0;startSize=20;whiteSpace=wrap;strokeColor=default;" parent="1" vertex="1" collapsed="1">
                    <mxGeometry x="527" y="3327" width="280" height="30" as="geometry">
                        <mxRectangle x="260" y="1120" width="40" height="480" as="alternateBounds"/>
                    </mxGeometry>
                </mxCell>
                <mxCell id="273" value="" style="dashed=1;dashPattern=8 4;endArrow=blockThin;endFill=1;startArrow=oval;startFill=0;endSize=6;startSize=4;html=1;rounded=0;jumpStyle=gap;exitX=0.767;exitY=0;exitDx=0;exitDy=0;entryX=0.5;entryY=1;entryDx=0;entryDy=0;entryPerimeter=0;exitPerimeter=0;" parent="1" source="272" target="268" edge="1">
                    <mxGeometry width="160" relative="1" as="geometry">
                        <mxPoint x="674" y="3235" as="sourcePoint"/>
                        <mxPoint x="672" y="3115" as="targetPoint"/>
                    </mxGeometry>
                </mxCell>
                <mxCell id="5nUSWNSxmODM9DKenBCi-326" value="Начисление средств исполнителю" style="swimlane;html=1;childLayout=stackLayout;resizeParent=1;resizeParentMax=0;horizontal=0;startSize=20;horizontalStack=0;whiteSpace=wrap;" parent="1" vertex="1">
                    <mxGeometry x="80" y="3440" width="840" height="280" as="geometry"/>
                </mxCell>
                <mxCell id="5nUSWNSxmODM9DKenBCi-327" value="Исполнитель" style="swimlane;html=1;startSize=20;horizontal=0;" parent="5nUSWNSxmODM9DKenBCi-326" vertex="1">
                    <mxGeometry x="20" width="820" height="120" as="geometry"/>
                </mxCell>
                <mxCell id="5nUSWNSxmODM9DKenBCi-352" value="" style="edgeStyle=orthogonalEdgeStyle;rounded=0;orthogonalLoop=1;jettySize=auto;html=1;" parent="5nUSWNSxmODM9DKenBCi-327" source="5nUSWNSxmODM9DKenBCi-348" target="5nUSWNSxmODM9DKenBCi-350" edge="1">
                    <mxGeometry relative="1" as="geometry"/>
                </mxCell>
                <mxCell id="5nUSWNSxmODM9DKenBCi-348" value="Получение средств" style="points=[[0.25,0,0],[0.5,0,0],[0.75,0,0],[1,0.25,0],[1,0.5,0],[1,0.75,0],[0.75,1,0],[0.5,1,0],[0.25,1,0],[0,0.75,0],[0,0.5,0],[0,0.25,0]];shape=mxgraph.bpmn.task;whiteSpace=wrap;rectStyle=rounded;size=10;html=1;container=1;expand=0;collapsible=0;taskMarker=abstract;" parent="5nUSWNSxmODM9DKenBCi-327" vertex="1">
                    <mxGeometry x="540" y="20" width="120" height="80" as="geometry"/>
                </mxCell>
                <mxCell id="5nUSWNSxmODM9DKenBCi-350" value="" style="points=[[0.145,0.145,0],[0.5,0,0],[0.855,0.145,0],[1,0.5,0],[0.855,0.855,0],[0.5,1,0],[0.145,0.855,0],[0,0.5,0]];shape=mxgraph.bpmn.event;html=1;verticalLabelPosition=bottom;labelBackgroundColor=#ffffff;verticalAlign=top;align=center;perimeter=ellipsePerimeter;outlineConnect=0;aspect=fixed;outline=end;symbol=terminate2;fillColor=none;" parent="5nUSWNSxmODM9DKenBCi-327" vertex="1">
                    <mxGeometry x="700" y="35" width="50" height="50" as="geometry"/>
                </mxCell>
                <mxCell id="5nUSWNSxmODM9DKenBCi-351" value="Средства получены&lt;div&gt;исполнителем&lt;/div&gt;" style="text;html=1;align=center;verticalAlign=middle;resizable=0;points=[];autosize=1;strokeColor=none;fillColor=none;" parent="5nUSWNSxmODM9DKenBCi-327" vertex="1">
                    <mxGeometry x="660" y="85" width="130" height="40" as="geometry"/>
                </mxCell>
                <mxCell id="5nUSWNSxmODM9DKenBCi-328" value="Менеджер" style="swimlane;html=1;startSize=20;horizontal=0;" parent="5nUSWNSxmODM9DKenBCi-326" vertex="1">
                    <mxGeometry x="20" y="120" width="820" height="160" as="geometry"/>
                </mxCell>
                <mxCell id="5nUSWNSxmODM9DKenBCi-330" value="" style="points=[[0.145,0.145,0],[0.5,0,0],[0.855,0.145,0],[1,0.5,0],[0.855,0.855,0],[0.5,1,0],[0.145,0.855,0],[0,0.5,0]];shape=mxgraph.bpmn.event;html=1;verticalLabelPosition=bottom;labelBackgroundColor=#ffffff;verticalAlign=top;align=center;perimeter=ellipsePerimeter;outlineConnect=0;aspect=fixed;outline=standard;symbol=general;fillColor=none;" parent="5nUSWNSxmODM9DKenBCi-328" vertex="1">
                    <mxGeometry x="80" y="55" width="50" height="50" as="geometry"/>
                </mxCell>
                <mxCell id="5nUSWNSxmODM9DKenBCi-333" value="Выбор исполнителя&lt;div&gt;и указание суммы&lt;/div&gt;" style="points=[[0.25,0,0],[0.5,0,0],[0.75,0,0],[1,0.25,0],[1,0.5,0],[1,0.75,0],[0.75,1,0],[0.5,1,0],[0.25,1,0],[0,0.75,0],[0,0.5,0],[0,0.25,0]];shape=mxgraph.bpmn.task;whiteSpace=wrap;rectStyle=rounded;size=10;html=1;container=1;expand=0;collapsible=0;taskMarker=user;" parent="5nUSWNSxmODM9DKenBCi-328" vertex="1">
                    <mxGeometry x="195" y="40" width="120" height="80" as="geometry"/>
                </mxCell>
                <mxCell id="5nUSWNSxmODM9DKenBCi-334" style="edgeStyle=orthogonalEdgeStyle;rounded=0;orthogonalLoop=1;jettySize=auto;html=1;entryX=0;entryY=0.5;entryDx=0;entryDy=0;entryPerimeter=0;" parent="5nUSWNSxmODM9DKenBCi-328" source="5nUSWNSxmODM9DKenBCi-330" target="5nUSWNSxmODM9DKenBCi-333" edge="1">
                    <mxGeometry relative="1" as="geometry"/>
                </mxCell>
                <mxCell id="5nUSWNSxmODM9DKenBCi-332" value="Появление потребности&lt;div&gt;сделать&amp;nbsp;&lt;span style=&quot;background-color: transparent; color: light-dark(rgb(0, 0, 0), rgb(255, 255, 255));&quot;&gt;зачисление средств&lt;/span&gt;&lt;/div&gt;" style="text;html=1;align=center;verticalAlign=middle;resizable=0;points=[];autosize=1;strokeColor=none;fillColor=none;" parent="5nUSWNSxmODM9DKenBCi-328" vertex="1">
                    <mxGeometry x="15" y="105" width="180" height="40" as="geometry"/>
                </mxCell>
                <mxCell id="5nUSWNSxmODM9DKenBCi-341" value="" style="edgeStyle=none;html=1;" parent="5nUSWNSxmODM9DKenBCi-328" target="5nUSWNSxmODM9DKenBCi-342" edge="1">
                    <mxGeometry relative="1" as="geometry">
                        <mxPoint x="315" y="80" as="sourcePoint"/>
                    </mxGeometry>
                </mxCell>
                <mxCell id="5nUSWNSxmODM9DKenBCi-342" value="" style="points=[[0.145,0.145,0],[0.5,0,0],[0.855,0.145,0],[1,0.5,0],[0.855,0.855,0],[0.5,1,0],[0.145,0.855,0],[0,0.5,0]];shape=mxgraph.bpmn.event;html=1;verticalLabelPosition=bottom;labelBackgroundColor=#ffffff;verticalAlign=top;align=center;perimeter=ellipsePerimeter;outlineConnect=0;aspect=fixed;outline=throwing;symbol=message;" parent="5nUSWNSxmODM9DKenBCi-328" vertex="1">
                    <mxGeometry x="355" y="55" width="50" height="50" as="geometry"/>
                </mxCell>
                <mxCell id="5nUSWNSxmODM9DKenBCi-343" value="" style="dashed=1;dashPattern=8 4;endArrow=blockThin;endFill=1;startArrow=oval;startFill=0;endSize=6;startSize=4;html=1;rounded=0;jumpStyle=gap;exitX=0.5;exitY=1;exitDx=0;exitDy=0;exitPerimeter=0;entryX=0.171;entryY=0.014;entryDx=0;entryDy=0;entryPerimeter=0;" parent="5nUSWNSxmODM9DKenBCi-328" target="5nUSWNSxmODM9DKenBCi-346" edge="1">
                    <mxGeometry width="160" relative="1" as="geometry">
                        <mxPoint x="379.5" y="105" as="sourcePoint"/>
                        <mxPoint x="380" y="219" as="targetPoint"/>
                    </mxGeometry>
                </mxCell>
                <mxCell id="5nUSWNSxmODM9DKenBCi-344" value="" style="points=[[0.145,0.145,0],[0.5,0,0],[0.855,0.145,0],[1,0.5,0],[0.855,0.855,0],[0.5,1,0],[0.145,0.855,0],[0,0.5,0]];shape=mxgraph.bpmn.event;html=1;verticalLabelPosition=bottom;labelBackgroundColor=#ffffff;verticalAlign=top;align=center;perimeter=ellipsePerimeter;outlineConnect=0;aspect=fixed;outline=catching;symbol=message;strokeColor=default;" parent="5nUSWNSxmODM9DKenBCi-328" vertex="1">
                    <mxGeometry x="445" y="55" width="50" height="50" as="geometry"/>
                </mxCell>
                <mxCell id="5nUSWNSxmODM9DKenBCi-345" value="Получение информации&lt;br&gt;о транзакции" style="text;html=1;align=center;verticalAlign=middle;resizable=0;points=[];autosize=1;strokeColor=none;fillColor=none;" parent="5nUSWNSxmODM9DKenBCi-328" vertex="1">
                    <mxGeometry x="475" y="109" width="160" height="40" as="geometry"/>
                </mxCell>
                <mxCell id="5nUSWNSxmODM9DKenBCi-353" value="Отправка информации&lt;br&gt;о транзакции" style="text;html=1;align=center;verticalAlign=middle;resizable=0;points=[];autosize=1;strokeColor=none;fillColor=none;" parent="5nUSWNSxmODM9DKenBCi-328" vertex="1">
                    <mxGeometry x="305" y="15" width="150" height="40" as="geometry"/>
                </mxCell>
                <mxCell id="5nUSWNSxmODM9DKenBCi-349" style="edgeStyle=orthogonalEdgeStyle;rounded=0;orthogonalLoop=1;jettySize=auto;html=1;entryX=0;entryY=0.5;entryDx=0;entryDy=0;entryPerimeter=0;" parent="5nUSWNSxmODM9DKenBCi-326" source="5nUSWNSxmODM9DKenBCi-344" target="5nUSWNSxmODM9DKenBCi-348" edge="1">
                    <mxGeometry relative="1" as="geometry"/>
                </mxCell>
                <mxCell id="5nUSWNSxmODM9DKenBCi-346" value="Платёжный сервис" style="swimlane;html=1;childLayout=stackLayout;resizeParent=1;resizeParentMax=0;startSize=20;whiteSpace=wrap;strokeColor=default;" parent="1" vertex="1" collapsed="1">
                    <mxGeometry x="456" y="3767" width="150" height="30" as="geometry">
                        <mxRectangle x="260" y="1120" width="40" height="480" as="alternateBounds"/>
                    </mxGeometry>
                </mxCell>
                <mxCell id="5nUSWNSxmODM9DKenBCi-347" value="" style="dashed=1;dashPattern=8 4;endArrow=blockThin;endFill=1;startArrow=oval;startFill=0;endSize=6;startSize=4;html=1;rounded=0;jumpStyle=gap;exitX=0.767;exitY=0;exitDx=0;exitDy=0;entryX=0.5;entryY=1;entryDx=0;entryDy=0;entryPerimeter=0;exitPerimeter=0;" parent="1" source="5nUSWNSxmODM9DKenBCi-346" target="5nUSWNSxmODM9DKenBCi-344" edge="1">
                    <mxGeometry width="160" relative="1" as="geometry">
                        <mxPoint x="571" y="3796" as="sourcePoint"/>
                        <mxPoint x="569" y="3676" as="targetPoint"/>
                    </mxGeometry>
                </mxCell>
                <mxCell id="266" value="" style="dashed=1;dashPattern=8 4;endArrow=blockThin;endFill=1;startArrow=oval;startFill=0;endSize=6;startSize=4;html=1;rounded=0;jumpStyle=gap;exitX=0.5;exitY=1;exitDx=0;exitDy=0;exitPerimeter=0;entryX=0.2;entryY=0;entryDx=0;entryDy=0;entryPerimeter=0;" parent="1" source="264" target="272" edge="1">
                    <mxGeometry width="160" relative="1" as="geometry">
                        <mxPoint x="589" y="3137" as="sourcePoint"/>
                        <mxPoint x="585" y="3277" as="targetPoint"/>
                    </mxGeometry>
                </mxCell>
                <mxCell id="IVOCab5pVsxxlHQSK73W-314" value="Списание оплаты у клиентов" style="swimlane;html=1;childLayout=stackLayout;resizeParent=1;resizeParentMax=0;horizontal=0;startSize=20;horizontalStack=0;whiteSpace=wrap;strokeColor=default;" parent="1" vertex="1">
                    <mxGeometry x="81" y="2560" width="1480" height="280" as="geometry"/>
                </mxCell>
                <mxCell id="IVOCab5pVsxxlHQSK73W-315" value="Исполнитель" style="swimlane;html=1;startSize=20;horizontal=0;strokeColor=default;" parent="IVOCab5pVsxxlHQSK73W-314" vertex="1">
                    <mxGeometry x="20" width="1460" height="280" as="geometry"/>
                </mxCell>
                <mxCell id="IVOCab5pVsxxlHQSK73W-316" value="" style="edgeStyle=none;html=1;" parent="IVOCab5pVsxxlHQSK73W-315" source="IVOCab5pVsxxlHQSK73W-317" target="IVOCab5pVsxxlHQSK73W-321" edge="1">
                    <mxGeometry relative="1" as="geometry"/>
                </mxCell>
                <mxCell id="IVOCab5pVsxxlHQSK73W-317" value="" style="points=[[0.145,0.145,0],[0.5,0,0],[0.855,0.145,0],[1,0.5,0],[0.855,0.855,0],[0.5,1,0],[0.145,0.855,0],[0,0.5,0]];shape=mxgraph.bpmn.event;html=1;verticalLabelPosition=bottom;labelBackgroundColor=#ffffff;verticalAlign=top;align=center;perimeter=ellipsePerimeter;outlineConnect=0;aspect=fixed;outline=standard;symbol=timer;" parent="IVOCab5pVsxxlHQSK73W-315" vertex="1">
                    <mxGeometry x="50" y="55" width="50" height="50" as="geometry"/>
                </mxCell>
                <mxCell id="IVOCab5pVsxxlHQSK73W-318" value="Воскресенье" style="text;html=1;align=center;verticalAlign=middle;resizable=0;points=[];autosize=1;strokeColor=none;fillColor=none;" parent="IVOCab5pVsxxlHQSK73W-315" vertex="1">
                    <mxGeometry x="25" y="114" width="100" height="30" as="geometry"/>
                </mxCell>
                <mxCell id="IVOCab5pVsxxlHQSK73W-319" value="" style="edgeStyle=none;html=1;" parent="IVOCab5pVsxxlHQSK73W-315" target="IVOCab5pVsxxlHQSK73W-322" edge="1">
                    <mxGeometry relative="1" as="geometry">
                        <mxPoint x="420" y="80" as="sourcePoint"/>
                    </mxGeometry>
                </mxCell>
                <mxCell id="IVOCab5pVsxxlHQSK73W-320" value="" style="edgeStyle=none;html=1;" parent="IVOCab5pVsxxlHQSK73W-315" source="IVOCab5pVsxxlHQSK73W-321" target="IVOCab5pVsxxlHQSK73W-326" edge="1">
                    <mxGeometry relative="1" as="geometry"/>
                </mxCell>
                <mxCell id="IVOCab5pVsxxlHQSK73W-321" value="Расчёт выплат&lt;div&gt;за неделю&lt;/div&gt;" style="points=[[0.25,0,0],[0.5,0,0],[0.75,0,0],[1,0.25,0],[1,0.5,0],[1,0.75,0],[0.75,1,0],[0.5,1,0],[0.25,1,0],[0,0.75,0],[0,0.5,0],[0,0.25,0]];shape=mxgraph.bpmn.task;whiteSpace=wrap;rectStyle=rounded;size=10;html=1;taskMarker=abstract;" parent="IVOCab5pVsxxlHQSK73W-315" vertex="1">
                    <mxGeometry x="140" y="40" width="120" height="80" as="geometry"/>
                </mxCell>
                <mxCell id="IVOCab5pVsxxlHQSK73W-322" value="" style="points=[[0.145,0.145,0],[0.5,0,0],[0.855,0.145,0],[1,0.5,0],[0.855,0.855,0],[0.5,1,0],[0.145,0.855,0],[0,0.5,0]];shape=mxgraph.bpmn.event;html=1;verticalLabelPosition=bottom;labelBackgroundColor=#ffffff;verticalAlign=top;align=center;perimeter=ellipsePerimeter;outlineConnect=0;aspect=fixed;outline=throwing;symbol=message;" parent="IVOCab5pVsxxlHQSK73W-315" vertex="1">
                    <mxGeometry x="460" y="55" width="50" height="50" as="geometry"/>
                </mxCell>
                <mxCell id="IVOCab5pVsxxlHQSK73W-323" value="Отправка информации&lt;br&gt;о транзакции" style="text;html=1;align=center;verticalAlign=middle;resizable=0;points=[];autosize=1;strokeColor=none;fillColor=none;" parent="IVOCab5pVsxxlHQSK73W-315" vertex="1">
                    <mxGeometry x="410" y="13" width="150" height="40" as="geometry"/>
                </mxCell>
                <mxCell id="IVOCab5pVsxxlHQSK73W-324" value="" style="points=[[0.145,0.145,0],[0.5,0,0],[0.855,0.145,0],[1,0.5,0],[0.855,0.855,0],[0.5,1,0],[0.145,0.855,0],[0,0.5,0]];shape=mxgraph.bpmn.event;html=1;verticalLabelPosition=bottom;labelBackgroundColor=#ffffff;verticalAlign=top;align=center;perimeter=ellipsePerimeter;outlineConnect=0;aspect=fixed;outline=catching;symbol=message;strokeColor=default;" parent="IVOCab5pVsxxlHQSK73W-315" vertex="1">
                    <mxGeometry x="619" y="55" width="50" height="50" as="geometry"/>
                </mxCell>
                <mxCell id="IVOCab5pVsxxlHQSK73W-325" value="" style="points=[[0.145,0.145,0],[0.5,0,0],[0.855,0.145,0],[1,0.5,0],[0.855,0.855,0],[0.5,1,0],[0.145,0.855,0],[0,0.5,0]];shape=mxgraph.bpmn.event;html=1;verticalLabelPosition=bottom;labelBackgroundColor=#ffffff;verticalAlign=top;align=center;perimeter=ellipsePerimeter;outlineConnect=0;aspect=fixed;outline=end;symbol=terminate2;fillColor=none;" parent="IVOCab5pVsxxlHQSK73W-315" vertex="1">
                    <mxGeometry x="1230" y="8" width="50" height="50" as="geometry"/>
                </mxCell>
                <mxCell id="IVOCab5pVsxxlHQSK73W-326" value="Выставление инвойса" style="points=[[0.25,0,0],[0.5,0,0],[0.75,0,0],[1,0.25,0],[1,0.5,0],[1,0.75,0],[0.75,1,0],[0.5,1,0],[0.25,1,0],[0,0.75,0],[0,0.5,0],[0,0.25,0]];shape=mxgraph.bpmn.task;whiteSpace=wrap;rectStyle=rounded;size=10;html=1;taskMarker=abstract;" parent="IVOCab5pVsxxlHQSK73W-315" vertex="1">
                    <mxGeometry x="300" y="40" width="120" height="80" as="geometry"/>
                </mxCell>
                <mxCell id="IVOCab5pVsxxlHQSK73W-327" value="Проверка успешности оплаты" style="points=[[0.25,0,0],[0.5,0,0],[0.75,0,0],[1,0.25,0],[1,0.5,0],[1,0.75,0],[0.75,1,0],[0.5,1,0],[0.25,1,0],[0,0.75,0],[0,0.5,0],[0,0.25,0]];shape=mxgraph.bpmn.task;whiteSpace=wrap;rectStyle=rounded;size=10;html=1;container=1;expand=0;collapsible=0;taskMarker=abstract;" parent="IVOCab5pVsxxlHQSK73W-315" vertex="1">
                    <mxGeometry x="739" y="40" width="120" height="80" as="geometry"/>
                </mxCell>
                <mxCell id="IVOCab5pVsxxlHQSK73W-328" value="Получение информации&lt;br&gt;о транзакции" style="text;html=1;align=center;verticalAlign=middle;resizable=0;points=[];autosize=1;strokeColor=none;fillColor=none;" parent="IVOCab5pVsxxlHQSK73W-315" vertex="1">
                    <mxGeometry x="574" y="15" width="160" height="40" as="geometry"/>
                </mxCell>
                <mxCell id="IVOCab5pVsxxlHQSK73W-329" style="edgeStyle=orthogonalEdgeStyle;rounded=0;orthogonalLoop=1;jettySize=auto;html=1;entryX=0;entryY=0.5;entryDx=0;entryDy=0;entryPerimeter=0;" parent="IVOCab5pVsxxlHQSK73W-315" source="IVOCab5pVsxxlHQSK73W-324" target="IVOCab5pVsxxlHQSK73W-327" edge="1">
                    <mxGeometry relative="1" as="geometry"/>
                </mxCell>
                <mxCell id="IVOCab5pVsxxlHQSK73W-330" value="" style="edgeStyle=elbowEdgeStyle;fontSize=12;html=1;endArrow=blockThin;endFill=1;startArrow=diamondThin;startFill=0;endSize=6;startSize=10;rounded=0;exitX=1;exitY=0.25;exitDx=0;exitDy=0;exitPerimeter=0;entryX=0;entryY=0.5;entryDx=0;entryDy=0;entryPerimeter=0;" parent="IVOCab5pVsxxlHQSK73W-315" source="IVOCab5pVsxxlHQSK73W-327" target="IVOCab5pVsxxlHQSK73W-336" edge="1">
                    <mxGeometry width="160" relative="1" as="geometry">
                        <mxPoint x="869" y="70" as="sourcePoint"/>
                        <mxPoint x="1129" y="60" as="targetPoint"/>
                        <Array as="points">
                            <mxPoint x="1019" y="60"/>
                        </Array>
                    </mxGeometry>
                </mxCell>
                <mxCell id="IVOCab5pVsxxlHQSK73W-331" value="" style="edgeStyle=elbowEdgeStyle;fontSize=12;html=1;endArrow=blockThin;endFill=1;startArrow=diamondThin;startFill=0;endSize=6;startSize=10;rounded=0;exitX=1;exitY=0.75;exitDx=0;exitDy=0;exitPerimeter=0;entryX=0;entryY=0.5;entryDx=0;entryDy=0;entryPerimeter=0;" parent="IVOCab5pVsxxlHQSK73W-315" source="IVOCab5pVsxxlHQSK73W-327" target="IVOCab5pVsxxlHQSK73W-342" edge="1">
                    <mxGeometry width="160" relative="1" as="geometry">
                        <mxPoint x="869" y="99.80000000000018" as="sourcePoint"/>
                        <mxPoint x="999" y="100" as="targetPoint"/>
                        <Array as="points">
                            <mxPoint x="1020" y="110"/>
                        </Array>
                    </mxGeometry>
                </mxCell>
                <mxCell id="IVOCab5pVsxxlHQSK73W-332" value="Оплата не прошла" style="text;html=1;align=center;verticalAlign=middle;resizable=0;points=[];autosize=1;strokeColor=none;fillColor=none;" parent="IVOCab5pVsxxlHQSK73W-315" vertex="1">
                    <mxGeometry x="859" y="79" width="130" height="30" as="geometry"/>
                </mxCell>
                <mxCell id="IVOCab5pVsxxlHQSK73W-335" value="Оплата прошла успешно" style="text;html=1;align=center;verticalAlign=middle;resizable=0;points=[];autosize=1;strokeColor=none;fillColor=none;" parent="IVOCab5pVsxxlHQSK73W-315" vertex="1">
                    <mxGeometry x="859" y="40" width="160" height="30" as="geometry"/>
                </mxCell>
                <mxCell id="IVOCab5pVsxxlHQSK73W-336" value="Уведомление&lt;div&gt;о списании&lt;/div&gt;&lt;div&gt;средств&lt;/div&gt;" style="points=[[0.25,0,0],[0.5,0,0],[0.75,0,0],[1,0.25,0],[1,0.5,0],[1,0.75,0],[0.75,1,0],[0.5,1,0],[0.25,1,0],[0,0.75,0],[0,0.5,0],[0,0.25,0]];shape=mxgraph.bpmn.task;whiteSpace=wrap;rectStyle=rounded;size=10;html=1;container=1;expand=0;collapsible=0;taskMarker=send;" parent="IVOCab5pVsxxlHQSK73W-315" vertex="1">
                    <mxGeometry x="1040" y="-7" width="120" height="80" as="geometry"/>
                </mxCell>
                <mxCell id="IVOCab5pVsxxlHQSK73W-337" style="edgeStyle=orthogonalEdgeStyle;rounded=0;orthogonalLoop=1;jettySize=auto;html=1;entryX=0;entryY=0.5;entryDx=0;entryDy=0;entryPerimeter=0;" parent="IVOCab5pVsxxlHQSK73W-315" source="IVOCab5pVsxxlHQSK73W-336" target="IVOCab5pVsxxlHQSK73W-325" edge="1">
                    <mxGeometry relative="1" as="geometry"/>
                </mxCell>
                <mxCell id="IVOCab5pVsxxlHQSK73W-338" value="Проведено списание средств" style="text;html=1;align=center;verticalAlign=middle;resizable=0;points=[];autosize=1;strokeColor=none;fillColor=none;" parent="IVOCab5pVsxxlHQSK73W-315" vertex="1">
                    <mxGeometry x="1160" y="53" width="190" height="30" as="geometry"/>
                </mxCell>
                <mxCell id="IVOCab5pVsxxlHQSK73W-344" style="edgeStyle=orthogonalEdgeStyle;rounded=0;orthogonalLoop=1;jettySize=auto;html=1;" parent="IVOCab5pVsxxlHQSK73W-315" source="IVOCab5pVsxxlHQSK73W-342" target="IVOCab5pVsxxlHQSK73W-333" edge="1">
                    <mxGeometry relative="1" as="geometry"/>
                </mxCell>
                <mxCell id="IVOCab5pVsxxlHQSK73W-342" value="Уведомление&lt;div&gt;об ошибке&lt;/div&gt;&lt;div&gt;при списании средств&lt;/div&gt;" style="points=[[0.25,0,0],[0.5,0,0],[0.75,0,0],[1,0.25,0],[1,0.5,0],[1,0.75,0],[0.75,1,0],[0.5,1,0],[0.25,1,0],[0,0.75,0],[0,0.5,0],[0,0.25,0]];shape=mxgraph.bpmn.task;whiteSpace=wrap;rectStyle=rounded;size=10;html=1;container=1;expand=0;collapsible=0;taskMarker=send;" parent="IVOCab5pVsxxlHQSK73W-315" vertex="1">
                    <mxGeometry x="1040" y="120" width="120" height="80" as="geometry"/>
                </mxCell>
                <mxCell id="IVOCab5pVsxxlHQSK73W-333" value="" style="points=[[0.145,0.145,0],[0.5,0,0],[0.855,0.145,0],[1,0.5,0],[0.855,0.855,0],[0.5,1,0],[0.145,0.855,0],[0,0.5,0]];shape=mxgraph.bpmn.event;html=1;verticalLabelPosition=bottom;labelBackgroundColor=#ffffff;verticalAlign=top;align=center;perimeter=ellipsePerimeter;outlineConnect=0;aspect=fixed;outline=end;symbol=error;" parent="IVOCab5pVsxxlHQSK73W-315" vertex="1">
                    <mxGeometry x="1230" y="135" width="50" height="50" as="geometry"/>
                </mxCell>
                <mxCell id="IVOCab5pVsxxlHQSK73W-334" value="Ошибка при списании&lt;div&gt;средств у клиента&lt;/div&gt;" style="text;html=1;align=center;verticalAlign=middle;resizable=0;points=[];autosize=1;strokeColor=none;fillColor=none;" parent="IVOCab5pVsxxlHQSK73W-315" vertex="1">
                    <mxGeometry x="1180" y="185" width="150" height="40" as="geometry"/>
                </mxCell>
                <mxCell id="IVOCab5pVsxxlHQSK73W-339" value="Платёжный сервис" style="swimlane;html=1;childLayout=stackLayout;resizeParent=1;resizeParentMax=0;startSize=20;whiteSpace=wrap;strokeColor=default;" parent="1" vertex="1" collapsed="1">
                    <mxGeometry x="531" y="2887" width="280" height="30" as="geometry">
                        <mxRectangle x="260" y="1120" width="40" height="480" as="alternateBounds"/>
                    </mxGeometry>
                </mxCell>
                <mxCell id="IVOCab5pVsxxlHQSK73W-340" value="" style="dashed=1;dashPattern=8 4;endArrow=blockThin;endFill=1;startArrow=oval;startFill=0;endSize=6;startSize=4;html=1;rounded=0;jumpStyle=gap;exitX=0.767;exitY=0;exitDx=0;exitDy=0;entryX=0.5;entryY=1;entryDx=0;entryDy=0;entryPerimeter=0;exitPerimeter=0;" parent="1" source="IVOCab5pVsxxlHQSK73W-339" target="IVOCab5pVsxxlHQSK73W-324" edge="1">
                    <mxGeometry width="160" relative="1" as="geometry">
                        <mxPoint x="688" y="2835" as="sourcePoint"/>
                        <mxPoint x="686" y="2715" as="targetPoint"/>
                    </mxGeometry>
                </mxCell>
                <mxCell id="IVOCab5pVsxxlHQSK73W-341" value="" style="dashed=1;dashPattern=8 4;endArrow=blockThin;endFill=1;startArrow=oval;startFill=0;endSize=6;startSize=4;html=1;rounded=0;jumpStyle=gap;exitX=0.5;exitY=1;exitDx=0;exitDy=0;exitPerimeter=0;entryX=0.2;entryY=0;entryDx=0;entryDy=0;entryPerimeter=0;" parent="1" source="IVOCab5pVsxxlHQSK73W-322" target="IVOCab5pVsxxlHQSK73W-339" edge="1">
                    <mxGeometry width="160" relative="1" as="geometry">
                        <mxPoint x="603" y="2737" as="sourcePoint"/>
                        <mxPoint x="599" y="2877" as="targetPoint"/>
                    </mxGeometry>
                </mxCell>
            </root>
        </mxGraphModel>
    </diagram>
</mxfile>